<?xml version="1.0" standalone="no"?>
<!DOCTYPE svg PUBLIC "-//W3C//DTD SVG 1.1//EN" "http://www.w3.org/Graphics/SVG/1.1/DTD/svg11.dtd" >
<svg xmlns="http://www.w3.org/2000/svg" xmlns:xlink="http://www.w3.org/1999/xlink" version="1.1">
<metadata>
Created by FontForge 20161013 at Fri Jan  1 02:30:17 1904
 By ,,,
The digitally encoded machine readable software for producing the Typefaces licensed to you is copyrighted (c) 2000, Linotype Library GmbH or its affiliated Linotype-Hell companies. All rights reserved. This software is now the property of Heidelberger Druckmaschinen AG and its licensors and may not be reproduced, used, displayed, modified, disclosed or transferred without the express written approval of Heidelberger Druckmaschinen AG.
</metadata>
<defs>
<font id="HelveticaCyr-Upright" horiz-adv-x="1139" >
  <font-face 
    font-family="HelveticaCyr Upright"
    font-weight="400"
    font-stretch="normal"
    units-per-em="2048"
    panose-1="4 1 5 0 0 0 0 0 0 0"
    ascent="1638"
    descent="-410"
    x-height="1071"
    cap-height="1470"
    bbox="-96 -451 2040 1861"
    underline-thickness="102"
    underline-position="-358"
    unicode-range="U+0020-F2DD"
  />
<missing-glyph horiz-adv-x="569" 
 />
    <glyph glyph-name=".notdef" horiz-adv-x="569" 
 />
    <glyph glyph-name="glyph1" horiz-adv-x="0" 
 />
    <glyph glyph-name="nonmarkingreturn" horiz-adv-x="682" 
 />
    <glyph glyph-name="equal" unicode=" " horiz-adv-x="569" 
 />
    <glyph glyph-name="greater" unicode="!" horiz-adv-x="569" 
d="M186 985l47 -635h103l47 635v485h-197v-485zM180 0h209v221h-209v-221z" />
    <glyph glyph-name="question" unicode="&#x22;" horiz-adv-x="909" 
d="M514 954h184v516h-184v-516zM211 954h184v516h-184v-516z" />
    <glyph glyph-name="at" unicode="#" 
d="M475 842h229l-40 -279h-230zM195 0h159l60 416h229l-59 -416h159l60 416h209v147h-189l41 279h209v147h-188l59 416h-160l-59 -416h-229l59 416h-160l-59 -416h-209v-147h188l-41 -279h-208v-147h188z" />
    <glyph glyph-name="A" unicode="$" 
d="M520 831q-92 15 -164 68q-75 55 -77 158q0 100 67 168q64 63 174 65v-459zM618 629v0q144 -33 209 -95q62 -61 62 -161q0 -107 -68 -181q-67 -71 -203 -77v514zM520 115v0q-168 30 -219 118q-27 43 -37 97q-12 53 -14 108h-184v-30q4 -410 454 -441v-147h98v147
q445 19 455 451q0 166 -104 254q-109 86 -351 139v479q213 -24 242 -235h174q-6 184 -121 280q-118 94 -295 103v147h-98v-147q-201 -13 -311 -123q-115 -111 -115 -279q-2 -147 96 -241q99 -99 330 -144v-536z" />
    <glyph glyph-name="B" unicode="%" horiz-adv-x="1821" 
d="M420 876q-76 0 -109 64q-32 57 -32 149q0 95 32 154q33 57 109 59q76 -2 108 -59q31 -59 31 -154q0 -92 -31 -149q-32 -64 -108 -64v0zM438 -33h142l800 1471h-139zM1403 102q-76 0 -109 64q-33 57 -33 149q0 95 33 154q33 57 109 59q76 -2 108 -59q31 -59 31 -154
q0 -92 -31 -149q-32 -64 -108 -64v0zM420 741q151 2 221 103q66 98 66 245q0 150 -66 248q-70 99 -221 101q-152 -2 -219 -101q-70 -98 -70 -248q0 -147 70 -245q67 -101 219 -103v0zM1403 -33q151 2 221 103q65 98 65 245q0 150 -65 248q-70 98 -221 101q-152 -3 -219 -101
q-70 -98 -70 -248q0 -147 70 -245q67 -101 219 -103v0z" />
    <glyph glyph-name="C" unicode="&#x26;" horiz-adv-x="1366" 
d="M522 694l332 -405q-74 -97 -154 -135q-82 -41 -166 -39q-102 0 -180 71q-82 68 -84 183q-2 188 252 325v0zM440 1159q0 64 39 113t133 51q76 0 119 -45q43 -47 43 -121q-2 -86 -57 -147q-56 -64 -131 -111v0q-58 61 -99 127q-47 66 -47 133v0zM950 168l137 -168h234
l-262 317q30 54 69 150q37 96 52 225h-172q-19 -121 -60 -229v0l-268 319q45 31 92 66t86 80q84 90 88 243q0 125 -82 211t-246 88q-178 -4 -264 -100q-86 -98 -86 -223q0 -105 51 -185q46 -83 103 -145q-191 -106 -264 -207q-74 -102 -72 -256q0 -157 111 -268
q108 -115 309 -119q98 2 170 21q37 10 67 22q29 13 54 25q51 31 88 65q37 35 65 68v0z" />
    <glyph glyph-name="D" unicode="'" horiz-adv-x="569" 
d="M192 954h185v516h-185v-516z" />
    <glyph glyph-name="E" unicode="(" horiz-adv-x="682" 
d="M602 -422q-278 485 -270 956q-8 471 270 957h-121q-323 -412 -334 -957q11 -544 334 -956h121z" />
    <glyph glyph-name="F" unicode=")" horiz-adv-x="682" 
d="M201 -422q323 412 333 956q-10 545 -333 957h-121q278 -486 270 -957q8 -471 -270 -956h121z" />
    <glyph glyph-name="G" unicode="*" horiz-adv-x="797" 
d="M336 1245v0l-213 68v0l-39 -103l217 -69l-133 -193l96 -65v0l133 188v0l133 -188v0l97 65l-133 193l217 69l-39 103v0l-213 -68v0v225h-123v-225z" />
    <glyph glyph-name="H" unicode="+" horiz-adv-x="1229" 
d="M528 0h172v432h432v172h-432v432h-172v-432h-432v-172h432v-432z" />
    <glyph glyph-name="I" unicode="," horiz-adv-x="569" 
d="M180 0h105q0 -78 -21 -131q-12 -27 -31 -45q-22 -19 -53 -25v-94q41 12 80 31q37 18 66 51q30 33 47 90q16 55 16 139v205h-209v-221z" />
    <glyph glyph-name="K" unicode="." horiz-adv-x="569" 
d="M180 0h209v221h-209v-221z" />
    <glyph glyph-name="L" unicode="/" horiz-adv-x="569" 
d="M-25 -37h136l483 1544h-135z" />
    <glyph glyph-name="M" unicode="0" 
d="M272 702q0 172 27 285q23 113 61 176q41 64 95 90q53 25 114 25q176 -2 240 -154q59 -151 57 -422q-2 -333 -86 -456q-39 -64 -92 -90q-55 -29 -119 -29q-174 0 -237 156q-62 153 -60 419v0zM76 698q0 -90 16 -213q19 -123 66 -241q49 -117 145 -195q96 -80 258 -82
q174 2 277 86q100 84 147 203q51 121 66 244q12 120 12 202q2 336 -107 535q-112 199 -387 201q-147 -2 -241 -68q-97 -66 -152 -176q-53 -109 -78 -238q-22 -131 -22 -258v0z" />
    <glyph glyph-name="N" unicode="1" 
d="M532 0h197v1438h-145q-19 -93 -54 -144q-34 -53 -84 -80q-49 -26 -110 -34q-62 -11 -139 -17v-135h335v-1028z" />
    <glyph glyph-name="O" unicode="2" 
d="M285 924q18 356 284 354q142 -2 215 -76q72 -76 72 -188q0 -123 -74 -199q-75 -78 -243 -164q-285 -149 -373 -291q-92 -143 -100 -360h985v172h-783q21 102 113 180q45 39 119 84q73 43 178 98q201 109 291 216q84 106 84 260q0 172 -111 297q-113 126 -356 131
q-238 -2 -361 -136q-125 -133 -125 -346v-32h185z" />
    <glyph glyph-name="P" unicode="3" 
d="M53 440q4 -86 31 -168q25 -84 78 -153q55 -68 149 -109q92 -41 230 -43q256 4 385 137q127 127 127 320q-2 141 -68 223t-176 113v4q182 74 184 285q-10 382 -444 389q-203 0 -326 -115q-127 -115 -133 -361h172q2 144 72 230q69 84 223 86q123 -2 188 -68
q64 -67 64 -161q-4 -242 -287 -238q-43 0 -82 4v-151h70q166 2 256 -56q90 -59 90 -211q-2 -127 -88 -196q-88 -74 -225 -74q-156 0 -230 88q-73 82 -75 225h-185z" />
    <glyph glyph-name="Q" unicode="4" 
d="M678 0h184v350h209v160h-209v928h-153l-658 -910v-178h627v-350zM678 510h-461l457 637h4v-637z" />
    <glyph glyph-name="R" unicode="5" 
d="M119 637l155 -8q99 139 275 139q131 0 217 -80q88 -80 90 -237q0 -129 -78 -224q-78 -98 -229 -100q-127 0 -205 63q-78 60 -90 175h-184q20 -201 151 -299q131 -99 311 -99q166 2 269 58q104 51 157 131q56 82 76 168q19 86 19 151q-2 205 -140 328q-133 123 -342 125
q-149 0 -270 -90v0l61 395h611v172h-735z" />
    <glyph glyph-name="S" unicode="6" 
d="M1026 1057q-12 182 -127 282q-113 97 -289 99q-164 -2 -270 -76q-107 -76 -164 -197q-57 -119 -78 -260q-22 -141 -22 -272q0 -299 121 -479q120 -185 389 -187q135 2 225 49q88 47 143 123q56 76 78 160q21 84 21 156q-4 229 -136 346q-133 112 -311 112
q-141 -2 -223 -53t-119 -119h-4q14 246 100 391q86 144 242 146q213 -2 248 -221h176zM285 440q4 310 292 314q287 -4 291 -314q0 -118 -69 -213q-74 -98 -222 -100q-145 2 -219 100q-73 95 -73 213v0z" />
    <glyph glyph-name="T" unicode="7" 
d="M76 1221h792q-524 -687 -587 -1221h198q66 373 236 707q168 333 356 536v162h-995v-184z" />
    <glyph glyph-name="U" unicode="8" 
d="M80 399q0 -168 121 -295q121 -133 368 -137q252 4 371 137q119 127 119 295q0 123 -47 215q-50 90 -187 152q76 35 131 106q52 72 54 172q0 170 -113 281q-115 111 -328 113q-213 -2 -323 -113q-117 -111 -117 -281q2 -206 195 -280q-109 -41 -175 -127q-69 -88 -69 -238
v0zM276 399q0 109 72 187q72 80 221 82q154 -2 224 -82q69 -78 69 -187q0 -110 -69 -188q-70 -82 -224 -84q-149 2 -221 84q-72 78 -72 188v0zM313 1055q0 96 60 159q57 62 196 64q72 0 121 -19q49 -18 78 -51q57 -67 57 -153t-65 -156q-66 -70 -191 -72q-137 2 -196 72
q-31 35 -43 74q-17 41 -17 82v0z" />
    <glyph glyph-name="V" unicode="9" 
d="M113 348q16 -182 129 -280q114 -99 286 -101q168 2 275 80q104 76 162 195q30 61 49 129q18 65 30 133q19 137 19 268q0 152 -27 274q-31 121 -92 207q-121 183 -391 185q-131 0 -221 -45q-90 -48 -146 -123q-102 -160 -100 -320q2 -229 139 -344q133 -115 307 -115
q144 3 226 56t116 117h5q-13 -246 -99 -390q-86 -145 -243 -147q-213 0 -248 221h-176zM270 965q0 120 74 215q74 96 217 98q148 -2 221 -98q72 -95 72 -215q-6 -310 -293 -314q-287 4 -291 314v0z" />
    <glyph glyph-name="W" unicode=":" horiz-adv-x="569" 
d="M180 850h209v221h-209v-221zM180 0h209v221h-209v-221z" />
    <glyph glyph-name="X" unicode=";" horiz-adv-x="569" 
d="M180 0h105q0 -78 -21 -131q-12 -27 -31 -45q-22 -19 -53 -25v-94q41 12 80 31q37 18 66 51q30 33 47 90q16 55 16 139v205h-209v-221zM180 850h209v221h-209v-221z" />
    <glyph glyph-name="Y" unicode="&#x3c;" horiz-adv-x="1229" 
d="M96 440l1036 -456v0v180l-804 354l804 354v181v0l-1036 -457v-156z" />
    <glyph glyph-name="Z" unicode="=" horiz-adv-x="1229" 
d="M96 647h1036v172h-1036v-172zM96 217h1036v172h-1036v-172z" />
    <glyph glyph-name="bracketleft" unicode="&#x3e;" horiz-adv-x="1229" 
d="M96 -16v0l1036 456v156l-1036 457v0v-181l805 -354l-805 -354v-180z" />
    <glyph glyph-name="backslash" unicode="?" 
d="M334 1010q6 176 82 251q75 70 188 70q111 0 180 -59q70 -62 72 -187q-2 -90 -55 -155q-56 -66 -125 -131q-70 -66 -125 -150q-57 -86 -60 -217v-57h185v53q2 115 59 192q55 76 129 138q74 65 131 143q56 76 58 186q-2 189 -123 295q-119 107 -322 109q-135 -2 -223 -47
q-90 -47 -141 -117q-52 -70 -72 -139q-23 -72 -23 -123v-55h185zM479 0h209v221h-209v-221z" />
    <glyph glyph-name="bracketright" unicode="@" horiz-adv-x="1638" 
d="M1020 799q-2 -121 -76 -232q-37 -53 -86 -84q-49 -35 -111 -35q-77 0 -120 56q-47 53 -47 139q0 125 77 229q76 109 199 113q72 0 119 -51q45 -53 45 -135v0zM1081 1010v0q-41 79 -102 114q-62 33 -137 33q-211 -4 -334 -168q-125 -160 -125 -369q2 -143 92 -239
q88 -102 223 -105q68 0 129 39q60 35 105 82h4q6 -59 41 -90t82 -31q63 0 149 37q84 37 166 111t135 188q54 111 56 262q-5 289 -215 459q-205 172 -498 174q-326 -4 -547 -221q-227 -215 -231 -549q4 -338 231 -551q223 -219 557 -223q408 4 635 344h-164
q-178 -194 -467 -196q-272 2 -442 174q-176 168 -178 446q2 274 168 449q163 176 434 180q244 0 403 -133q162 -133 166 -385q-2 -170 -82 -283q-37 -55 -84 -86q-47 -35 -94 -35q-41 2 -39 49q0 45 14 95l144 546h-160z" />
    <glyph glyph-name="asciicircum" unicode="A" horiz-adv-x="1366" 
d="M1126 0h211l-532 1470h-225l-553 -1470h211l157 444h574zM913 604h-462l229 645h4z" />
    <glyph glyph-name="underscore" unicode="B" horiz-adv-x="1366" 
d="M152 0h620q143 0 244 43q98 39 155 102q62 66 88 142q25 75 25 147q-4 166 -88 250q-37 43 -84 70q-47 24 -94 39q108 51 153 141q43 88 43 166q-2 145 -75 231q-76 86 -187 115q-108 26 -274 24h-526v-1470zM348 172v512h395q191 0 271 -70q75 -67 73 -186
q2 -115 -73 -184q-80 -72 -271 -72h-395zM348 844v454h367q166 0 237 -57q66 -55 66 -162q0 -49 -8 -90q-13 -43 -45 -76q-33 -30 -93 -49q-59 -20 -157 -20h-367z" />
    <glyph glyph-name="grave" unicode="C" horiz-adv-x="1479" 
d="M276 737q0 277 138 436q131 160 358 162q315 -4 403 -301h193q-10 168 -156 316q-145 151 -446 157q-121 0 -242 -37q-121 -41 -221 -133q-100 -90 -160 -243q-63 -154 -63 -377q0 -226 72 -373q67 -145 170 -231q104 -82 221 -115q116 -35 217 -35q293 6 446 186
q154 175 172 377h-190q-21 -149 -129 -266q-111 -121 -299 -125q-219 2 -348 164q-133 160 -136 438v0z" />
    <glyph glyph-name="a" unicode="D" horiz-adv-x="1479" 
d="M166 0h588q356 8 495 256q74 113 103 244q28 131 28 256q-2 460 -338 643q-172 75 -381 71h-495v-1470zM362 1298h308q206 4 335 -92q168 -135 170 -463q-10 -567 -425 -571h-388v1126z" />
    <glyph glyph-name="b" unicode="E" horiz-adv-x="1366" 
d="M152 0h1087v172h-891v500h809v172h-809v454h877v172h-1073v-1470z" />
    <glyph glyph-name="c" unicode="F" horiz-adv-x="1251" 
d="M373 672h723v172h-723v454h821v172h-1018v-1470h197v672z" />
    <glyph glyph-name="d" unicode="G" horiz-adv-x="1593" 
d="M797 616h460q0 -116 -30 -211q-35 -98 -131 -176q-82 -61 -162 -77q-82 -19 -141 -17q-144 0 -240 55q-96 52 -152 138q-55 86 -75 194q-23 107 -23 221q2 289 143 441q136 151 338 151q64 0 131 -10q66 -14 127 -47q64 -33 113 -94q47 -64 70 -160h192q-39 246 -223 364
q-184 119 -399 119q-359 -8 -527 -243q-170 -232 -170 -517q0 -348 170 -563q168 -217 512 -221q318 6 486 229v0l47 -192h129v788h-645v-172z" />
    <glyph glyph-name="e" unicode="H" horiz-adv-x="1479" 
d="M152 0h196v692h782v-692h197v1470h-197v-606h-782v606h-196v-1470z" />
    <glyph glyph-name="f" unicode="I" horiz-adv-x="569" 
d="M186 0h197v1470h-197v-1470z" />
    <glyph glyph-name="g" unicode="J" horiz-adv-x="1024" 
d="M676 403q0 -151 -64 -211q-63 -59 -172 -57q-227 2 -221 236v102h-184v-117q2 -207 123 -301q116 -92 272 -92q88 0 168 21q78 20 139 69q64 49 101 137q34 89 34 224v1056h-196v-1067z" />
    <glyph glyph-name="h" unicode="K" horiz-adv-x="1366" 
d="M152 0h196v512l238 229v0l518 -741h252l-629 876l612 594h-274l-717 -716v0v716h-196v-1470z" />
    <glyph glyph-name="i" unicode="L" 
d="M348 1470h-196v-1470h948v172h-752v1298z" />
    <glyph glyph-name="j" unicode="M" horiz-adv-x="1706" 
d="M152 0h184v1237h4l414 -1237h196l414 1237h4v-1237h184v1470h-282l-416 -1237h-4l-416 1237h-282v-1470z" />
    <glyph glyph-name="k" unicode="N" horiz-adv-x="1479" 
d="M152 0h196v1196h4l748 -1196h227v1470h-197v-1189h-4l-747 1189h-227v-1470z" />
    <glyph glyph-name="l" unicode="O" horiz-adv-x="1593" 
d="M1513 735q-2 348 -186 559q-186 211 -530 213q-340 -2 -527 -213q-188 -211 -190 -559q0 -297 176 -528q176 -238 541 -244q368 6 544 244q172 231 172 528v0zM1317 735q0 -270 -127 -432q-129 -166 -393 -168q-260 2 -389 168q-132 162 -132 432q0 268 140 432
q133 166 381 168q252 -2 385 -168q133 -164 135 -432v0z" />
    <glyph glyph-name="m" unicode="P" horiz-adv-x="1366" 
d="M377 782v516h401q297 -2 293 -258q4 -256 -293 -258h-401zM180 0h197v610h422q471 10 469 430q2 420 -469 430h-619v-1470z" />
    <glyph glyph-name="n" unicode="Q" horiz-adv-x="1593" 
d="M1401 -115l100 119l-203 158q215 241 215 573q-2 348 -186 559q-186 211 -530 213q-340 -2 -527 -213q-188 -211 -190 -559q0 -297 176 -528q176 -238 541 -244q225 2 374 98v0l230 -176v0zM960 426l-100 -123l164 -125q-94 -43 -227 -43q-260 2 -389 168
q-132 162 -132 432q0 268 140 432q133 166 381 168q252 -2 385 -168q133 -164 135 -432q0 -301 -158 -463v0l-199 154v0z" />
    <glyph glyph-name="o" unicode="R" horiz-adv-x="1479" 
d="M377 629h483q88 0 143 -23q54 -22 80 -61q27 -37 35 -84q6 -45 6 -92q0 -50 6 -170q5 -56 11 -109t16 -90h244v33q-43 26 -58 57q-14 31 -16 90l-12 266q-4 76 -17 127q-16 50 -41 76q-24 31 -53 47q-31 15 -65 27q36 20 73 51q35 27 66 66q31 41 49 98q16 57 16 137
q-4 229 -149 315q-145 82 -334 80h-680v-1470h197v629zM377 1298h497q82 2 170 -37q41 -22 68 -71q27 -51 27 -135q0 -80 -25 -129q-25 -52 -68 -78q-43 -27 -96 -35q-53 -12 -110 -12h-463v497z" />
    <glyph glyph-name="p" unicode="S" horiz-adv-x="1366" 
d="M1223 1038q-2 234 -154 352q-152 117 -401 117q-260 -2 -389 -127q-132 -125 -132 -311q-4 -281 375 -373l262 -65q156 -35 221 -90q64 -58 64 -160q-2 -129 -117 -186q-112 -60 -276 -60t-277 88q-114 88 -116 254h-185v-24q0 -203 142 -342q141 -144 432 -148
q229 -2 407 94q180 99 187 355q2 303 -392 393l-292 71q-248 52 -250 203q-2 252 346 256q180 -2 268 -86t92 -211h185z" />
    <glyph glyph-name="q" unicode="T" horiz-adv-x="1251" 
d="M29 1298h499v-1298h197v1298h500v172h-1196v-172z" />
    <glyph glyph-name="r" unicode="U" horiz-adv-x="1479" 
d="M1120 1470v-931q0 -119 -33 -195q-34 -80 -92 -125q-26 -20 -57 -37q-33 -18 -68 -26q-67 -21 -139 -21q-65 0 -131 21q-66 20 -121 65q-53 45 -86 125q-35 78 -35 197v927h-196v-979q-2 -212 135 -366q135 -158 428 -162q303 4 448 166q144 158 144 389v952h-197z" />
    <glyph glyph-name="s" unicode="V" horiz-adv-x="1366" 
d="M686 217h-4l-420 1253h-221l536 -1470h211l537 1470h-223z" />
    <glyph glyph-name="t" unicode="W" horiz-adv-x="1933" 
d="M965 1218h4l335 -1218h209l387 1470h-219l-274 -1196h-4l-330 1196h-217l-330 -1196h-4l-274 1196h-215l383 -1470h209z" />
    <glyph glyph-name="u" unicode="X" horiz-adv-x="1366" 
d="M281 0l401 604v0l401 -604h244l-522 754l493 716h-243l-373 -563v0l-373 563h-243l493 -716l-522 -754h244z" />
    <glyph glyph-name="v" unicode="Y" horiz-adv-x="1366" 
d="M780 592l557 878h-233l-422 -706v0l-422 706h-231l555 -878v-592h196v592z" />
    <glyph glyph-name="w" unicode="Z" horiz-adv-x="1251" 
d="M1204 172h-909l909 1126v172h-1089v-172h837l-905 -1132v-166h1157v172z" />
    <glyph glyph-name="x" unicode="[" horiz-adv-x="569" 
d="M147 -401h383v147h-211v1577h211v147h-383v-1871z" />
    <glyph glyph-name="y" unicode="\" horiz-adv-x="569" 
d="M459 -37h135l-483 1544h-136z" />
    <glyph glyph-name="z" unicode="]" horiz-adv-x="569" 
d="M39 -401h383v1871h-383v-147h211v-1577h-211v-147z" />
    <glyph glyph-name="braceleft" unicode="^" horiz-adv-x="1229" 
d="M307 577l307 644v0l308 -644h184l-408 828h-168l-407 -828h184z" />
    <glyph glyph-name="bar" unicode="_" horiz-adv-x="1024" 
d="M0 -256h1024v102h-1024v-102z" />
    <glyph glyph-name="braceright" unicode="`" horiz-adv-x="455" 
d="M229 1212h138l-183 295h-223z" />
    <glyph glyph-name="asciitilde" unicode="a" 
d="M305 750q12 206 250 206q244 2 246 -182q0 -59 -23 -90q-24 -29 -69 -35l-301 -37q-125 -10 -220 -90q-100 -82 -102 -246q2 -151 102 -229q99 -80 226 -80q145 2 237 51q90 48 156 123v0q10 -159 194 -155q58 2 99 16v127q-31 -8 -60 -8q-30 0 -43 20q-16 17 -16 43v623
q-4 162 -125 229q-119 68 -283 68q-190 0 -311 -78q-119 -82 -129 -276h172zM797 545v-172q0 -68 -35 -117t-88 -80q-115 -63 -209 -61q-86 0 -139 49q-56 47 -56 139q0 80 66 121q63 43 164 53q92 10 174 25q78 14 123 43v0z" />
    <glyph glyph-name="Adieresis" unicode="b" 
d="M115 0h172v145h4q61 -104 143 -143q82 -35 162 -35q137 2 229 60q92 55 144 145q100 190 98 397q0 232 -115 381q-114 152 -332 154q-69 0 -122 -19q-56 -18 -93 -47q-36 -28 -61 -59q-27 -31 -45 -57v0v548h-184v-1470zM590 944q104 -2 164 -43q61 -41 88 -104
q28 -62 37 -131q4 -70 4 -123q0 -181 -70 -295q-72 -119 -219 -121q-94 -2 -191 76q-45 43 -73 112q-31 70 -31 174q0 70 10 148q8 78 39 147q31 70 88 115q58 45 154 45v0z" />
    <glyph glyph-name="Aring" unicode="c" horiz-adv-x="1024" 
d="M805 377q-53 -260 -260 -262q-285 -4 -289 405q0 195 76 307q73 115 225 117q221 -4 248 -233h172q-2 63 -25 131q-22 67 -71 127q-50 59 -131 98q-84 35 -213 37q-191 -2 -324 -152q-139 -151 -141 -422q0 -157 45 -268q43 -110 108 -174q68 -63 146 -92q75 -29 147 -29
q131 2 217 43t137 105q52 63 76 133q25 69 29 129h-172z" />
    <glyph glyph-name="Ccedilla" unicode="d" 
d="M1024 1470h-184v-548v0q-15 26 -39 57q-27 31 -64 59q-37 29 -90 47q-55 19 -129 19q-213 -2 -328 -154q-118 -149 -118 -381q0 -96 24 -200q21 -107 76 -197t145 -145q93 -58 226 -60q82 0 164 35q81 39 141 143h4v-145h172v1470zM549 944q98 0 158 -45q57 -45 88 -115
q30 -69 38 -147q7 -78 7 -148q0 -104 -27 -174q-29 -69 -76 -112q-43 -39 -94 -58q-51 -18 -98 -18q-148 2 -217 121q-72 114 -72 295q0 53 8 123q8 69 35 131q31 63 90 104q57 41 160 43v0z" />
    <glyph glyph-name="Eacute" unicode="e" 
d="M868 342q-12 -37 -32 -74q-21 -37 -54 -69q-32 -31 -82 -50q-49 -22 -123 -22q-139 0 -217 94q-79 92 -84 250h783v92q-2 273 -135 408q-136 133 -361 133q-78 0 -160 -31q-84 -33 -157 -100q-162 -137 -166 -430q2 -291 143 -432q137 -144 357 -144q202 4 323 119
q121 111 143 256h-178zM276 618q13 144 95 236q80 88 206 90q279 -4 297 -326h-598z" />
    <glyph glyph-name="Ntilde" unicode="f" horiz-adv-x="569" 
d="M537 924v147h-179v135q-2 125 105 125q37 -2 74 -6v162q-41 4 -84 4q-275 2 -279 -236v-184h-145v-147h145v-924h184v924h179z" />
    <glyph glyph-name="Odieresis" unicode="g" 
d="M549 944q98 0 158 -45q57 -45 86 -117q30 -69 38 -147q7 -78 7 -146q0 -106 -27 -176q-29 -69 -76 -110q-43 -39 -94 -58q-53 -18 -96 -18q-148 2 -217 121q-72 114 -72 295q0 53 8 123q8 65 35 129q31 65 90 106q57 41 160 43v0zM1014 1071h-170v-149h-4
q-29 53 -103 116q-37 29 -90 47q-55 19 -129 19q-213 -2 -328 -154q-118 -149 -118 -383q0 -96 24 -198q21 -107 76 -197t145 -145q93 -58 226 -60q110 2 182 45q72 41 104 99v0v-35q0 -66 -4 -131q-6 -68 -32 -123q-25 -55 -89 -88q-63 -35 -176 -37q-16 0 -47 4
q-35 4 -76 18q-36 19 -69 54q-35 35 -49 98h-181q17 -106 64 -170q47 -63 109 -96q63 -33 126 -43q64 -13 111 -13q186 3 289 66q102 61 147 150q45 90 56 178q6 90 6 147v981z" />
    <glyph glyph-name="Udieresis" unicode="h" 
d="M129 0h184v588q2 200 97 280q43 43 96 60q51 16 106 16q64 0 107 -14q43 -19 65 -49q41 -66 41 -177v-704h185v731q0 115 -33 191q-35 73 -90 112q-56 41 -121 55q-66 15 -131 15q-66 0 -115 -17q-51 -16 -90 -45q-37 -24 -63 -53q-27 -31 -50 -59h-4v540h-184v-1470z
" />
    <glyph glyph-name="aacute" unicode="i" horiz-adv-x="455" 
d="M135 1249h184v209h-184v-209zM135 0h184v1071h-184v-1071z" />
    <glyph glyph-name="agrave" unicode="j" horiz-adv-x="455" 
d="M-35 -416q35 -6 68 -6q88 0 145 23q55 18 86 55q33 39 45 88q10 49 10 107v1220h-184v-1210q2 -68 -20 -94q-25 -29 -115 -29h-35v-154zM135 1249h184v209h-184v-209z" />
    <glyph glyph-name="acircumflex" unicode="k" horiz-adv-x="1024" 
d="M592 672l409 399h-229l-455 -453v0v852h-184v-1470h184v405l144 136v0l334 -541h231z" />
    <glyph glyph-name="adieresis" unicode="l" horiz-adv-x="455" 
d="M319 1470h-184v-1470h184v1470z" />
    <glyph glyph-name="atilde" unicode="m" horiz-adv-x="1706" 
d="M129 0h184v588q0 110 31 180q29 70 74 108q45 39 92 54q47 14 84 14q53 0 86 -16q31 -19 49 -47q33 -64 33 -136v-745h184v657q0 113 72 199q65 86 180 88q113 -2 156 -68q24 -30 32 -77q9 -47 9 -103v-696h184v743q0 113 -33 187q-35 69 -88 108t-108 54q-58 12 -103 12
q-121 -2 -194 -49q-74 -47 -138 -125v0q-8 22 -26 53q-21 29 -53 57q-33 29 -82 47q-50 17 -123 17q-70 0 -123 -19q-55 -20 -94 -49q-39 -28 -64 -59q-26 -33 -43 -55h-4v149h-174v-1071z" />
    <glyph glyph-name="aring" unicode="n" 
d="M129 0h184v588q0 110 31 180q29 70 74 108q45 39 92 54q47 14 86 14q129 0 182 -70q47 -69 47 -210v-664h185v731q0 115 -33 191q-35 73 -90 112q-56 41 -121 55q-66 15 -131 15q-139 -4 -219 -68q-39 -28 -66 -59q-26 -33 -43 -55h-4v149h-174v-1071z" />
    <glyph glyph-name="ccedilla" unicode="o" 
d="M883 537q0 -183 -78 -293q-80 -115 -236 -117q-153 2 -231 117q-82 110 -82 293q0 182 82 294q78 111 231 113q156 -2 236 -113q78 -112 78 -294v0zM1067 537q-8 555 -498 567q-489 -12 -497 -567q8 -557 497 -570q490 13 498 570v0z" />
    <glyph glyph-name="eacute" unicode="p" 
d="M125 -422h184v543h4q29 -55 103 -101q75 -51 180 -53q219 0 344 142q125 141 127 466q-4 265 -131 398q-129 131 -307 131q-127 0 -203 -51q-76 -52 -113 -129h-4v147h-184v-1493zM305 530q0 185 70 299q71 113 215 115q153 -2 223 -115q70 -114 70 -299q0 -176 -70 -286
q-70 -115 -223 -117q-144 2 -215 117q-70 110 -70 286v0z" />
    <glyph glyph-name="egrave" unicode="q" 
d="M1014 1071h-185v-147h-4q-35 77 -110 129q-76 51 -205 51q-178 0 -303 -131q-133 -133 -135 -398q14 -612 471 -608q108 2 182 53q76 46 100 101h4v-543h185v1493zM833 530q0 -176 -67 -286q-70 -115 -217 -117q-150 2 -221 117q-72 110 -72 286q0 185 72 299
q71 113 221 115q147 -2 217 -115q67 -114 67 -299v0z" />
    <glyph glyph-name="ecircumflex" unicode="r" horiz-adv-x="682" 
d="M156 0h184v625q0 120 76 204q71 82 196 84h68v185q-16 6 -47 6q-101 -2 -174 -55q-72 -58 -127 -154h-4v176h-172v-1071z" />
    <glyph glyph-name="edieresis" unicode="s" horiz-adv-x="1024" 
d="M72 338q8 -193 131 -281q119 -90 321 -90q217 2 324 111q104 102 104 252q0 73 -26 121q-29 49 -78 79q-47 33 -107 54q-59 18 -125 30q-30 9 -59 17q-31 6 -61 12q-31 10 -58 18q-28 7 -53 15q-47 18 -76 49q-30 27 -30 72q2 155 217 159q239 -2 251 -188h172
q0 147 -106 242q-106 92 -307 94q-172 0 -283 -86q-114 -86 -117 -256q0 -70 31 -117q29 -49 76 -82q49 -31 111 -51q59 -21 120 -37q131 -27 232 -61q49 -19 78 -47q26 -31 26 -76q-2 -170 -254 -176q-260 -4 -282 223h-172z" />
    <glyph glyph-name="iacute" unicode="t" horiz-adv-x="569" 
d="M526 924v147h-170v299h-184v-299h-143v-147h143v-709q-2 -98 43 -162q25 -30 68 -47q43 -18 108 -20q49 2 135 14v145h-63q-31 -2 -66 13q-39 12 -41 71v695h170z" />
    <glyph glyph-name="igrave" unicode="u" 
d="M1010 1071h-185v-588q0 -106 -28 -176q-29 -69 -74 -110q-43 -39 -90 -54q-49 -16 -90 -16q-129 0 -181 72q-51 71 -49 209v663h-184v-731q0 -113 37 -184q35 -72 90 -115q29 -18 59 -31q31 -14 62 -24q65 -19 127 -19q71 0 127 23q55 20 94 49q41 29 68 59q26 29 38 51
h5v-149h174v1071z" />
    <glyph glyph-name="icircumflex" unicode="v" horiz-adv-x="1024" 
d="M508 199h-4l-279 872h-209l392 -1071h192l408 1071h-197z" />
    <glyph glyph-name="idieresis" unicode="w" horiz-adv-x="1479" 
d="M733 829h4l217 -829h187l311 1071h-180l-217 -842h-4l-209 842h-201l-207 -842h-4l-205 842h-196l309 -1071h186z" />
    <glyph glyph-name="ntilde" unicode="x" horiz-adv-x="1024" 
d="M500 399l272 -399h231l-378 549l362 522h-221l-242 -373v0l-254 373h-231l356 -522l-375 -549h228l252 399v0z" />
    <glyph glyph-name="oacute" unicode="y" horiz-adv-x="1024" 
d="M420 -29l-60 -151q-30 -92 -131 -94q-67 2 -108 18v-166q28 -10 102 -12q142 -2 213 69q70 76 156 322l409 1114h-202l-285 -872h-4l-285 872h-202z" />
    <glyph glyph-name="ograve" unicode="z" horiz-adv-x="1024" 
d="M942 924v147h-829v-147h600l-650 -783v-141h897v147h-661z" />
    <glyph glyph-name="ocircumflex" unicode="{" horiz-adv-x="684" 
d="M59 461q62 2 117 -53q53 -56 55 -162v-383q0 -64 25 -113q23 -49 55 -84q35 -33 76 -49q39 -18 76 -18h160v147h-117q-60 2 -80 51q-23 47 -23 105v368q0 78 -18 129q-20 49 -49 76q-29 31 -57 43q-29 12 -48 14v5q41 6 105 61q29 31 49 78q18 45 18 112v379q0 58 23 107
q20 47 80 49h117v147h-160q-78 0 -152 -65q-32 -33 -55 -82q-25 -49 -25 -117v-385q-2 -96 -55 -151q-55 -56 -117 -62v-147z" />
    <glyph glyph-name="odieresis" unicode="|" horiz-adv-x="455" 
d="M141 -438h172v2048h-172v-2048z" />
    <glyph glyph-name="otilde" unicode="}" horiz-adv-x="684" 
d="M625 608q-62 6 -115 62q-55 55 -57 151v385q0 68 -21 117q-22 49 -57 82q-74 65 -154 65h-160v-147h117q64 -2 84 -49q19 -49 19 -107v-379q0 -67 22 -112q19 -47 47 -78q29 -29 58 -41q28 -14 45 -20v-5q-41 -2 -103 -57q-28 -27 -47 -76q-22 -51 -22 -129v-368
q0 -58 -19 -105q-20 -49 -84 -51h-117v-147h160q80 0 154 67q35 35 57 84q21 49 21 113v383q2 106 57 162q53 55 115 53v147z" />
    <glyph glyph-name="uacute" unicode="~" horiz-adv-x="1229" 
d="M215 354v0q25 60 66 105q38 43 106 45q70 0 125 -21q55 -22 104 -51q52 -29 103 -47q51 -25 112 -25q93 2 152 56q31 26 55 57q25 31 49 66l-73 143v0q-29 -49 -72 -96q-45 -52 -109 -54q-36 0 -88 25q-51 18 -110 47q-55 29 -117 51q-61 21 -121 21q-90 -2 -151 -49
q-64 -47 -105 -129z" />
    <glyph glyph-name="ucircumflex" horiz-adv-x="1558" 
d="M1149 1470h-1122v-174h415v-1296h197v637q72 29 147 49q72 21 160 21q330 -7 334 -394q0 -127 -41 -243q-43 -117 -141 -199q-90 -68 -176 -90q-41 -10 -76 -16q-37 -7 -66 -9v-174q82 2 201 29t248 123q131 110 190 266q55 154 55 324q0 102 -28 219q-31 118 -127 211
q-72 67 -164 98q-90 27 -182 27q-115 -3 -203 -31q-43 -12 -78 -25q-35 -12 -53 -22v495h510v174z" />
    <glyph glyph-name="udieresis" horiz-adv-x="1063" 
d="M152 0h196v1298h668v172h-864v-1470zM473 1567h137l269 294h-224z" />
    <glyph glyph-name="acute" horiz-adv-x="1366" 
d="M543 1567h137l268 294h-223zM152 0h196v512l238 229v0l518 -741h252l-629 876l612 594h-274l-717 -716v0v716h-196v-1470z" />
    <glyph glyph-name="dieresis" horiz-adv-x="1593" 
d="M448 0h197v672h354q150 0 213 -64q60 -65 60 -182v-426h196v455q6 383 -448 389h-375v454h520v172h-1087v-172h370v-1298z" />
    <glyph glyph-name="notequal" horiz-adv-x="1479" 
d="M152 0h489v-315h197v315h489v1470h-209v-1298h-758v1298h-208v-1470z" />
    <glyph glyph-name="AE" 
d="M225 0h185v586q24 22 84 57q59 33 143 35q80 0 125 -35q47 -37 67 -100q21 -60 29 -133q4 -74 4 -150q2 -211 -49 -350q-57 -137 -223 -172v-160q149 12 241 82q93 70 138 174q49 107 65 223q12 115 12 222q0 57 -6 149q-8 92 -43 186q-32 95 -108 158q-78 64 -213 66
q-92 -2 -158 -31q-67 -29 -108 -60v0v281h469v160h-469v282h-185v-282h-198v-160h198v-1028z" />
    <glyph glyph-name="ordfeminine" 
d="M152 0h184v348l180 168v0l373 -516h237l-477 639l469 432h-242l-540 -508v0v508h-184v-1071zM471 1212h137l268 295h-223z" />
    <glyph glyph-name="ordmasculine" 
d="M846 0h184v524q-6 320 -328 316q-104 -2 -178 -37q-37 -15 -63 -33q-31 -18 -51 -35v0v293h469v160h-469v282h-185v-282h-198v-160h198v-1028h185v573q153 115 262 113q71 2 137 -61q39 -54 37 -121v-504z" />
    <glyph glyph-name="uni00A0" unicode="&#xa0;" horiz-adv-x="569" 
 />
    <glyph glyph-name="oslash" unicode="&#xa1;" horiz-adv-x="1366" 
d="M256 -8q68 -27 145 -29q191 0 287 94q94 97 182 314l482 1099h-222l-397 -983v0l-457 983h-229l504 -1034q33 -61 41 -90q6 -31 6 -57q0 -53 -41 -90q-43 -39 -143 -39q-66 0 -101 12q-34 10 -57 23v-203zM367 1849q12 -117 88 -196q75 -84 227 -86q154 2 229 86
q76 79 86 196h-100q-18 -88 -76 -123q-59 -39 -139 -37q-80 -2 -137 37q-56 35 -78 123h-100z" />
    <glyph glyph-name="glyph129" unicode="&#xa2;" horiz-adv-x="1024" 
d="M420 -29l-60 -151q-30 -92 -131 -94q-67 2 -108 18v-166q28 -10 102 -12q142 -2 213 69q70 76 156 322l409 1114h-202l-285 -872h-4l-285 872h-202zM197 1507q12 -117 88 -196q75 -84 227 -86q154 2 229 86q76 79 86 196h-100q-18 -88 -76 -123q-59 -39 -139 -37
q-80 -2 -137 37q-56 35 -78 123h-100z" />
    <glyph glyph-name="glyph130" unicode="&#xa3;" horiz-adv-x="1024" 
d="M676 403q0 -151 -64 -211q-63 -59 -172 -57q-227 2 -221 236v102h-184v-117q2 -207 123 -301q116 -92 272 -92q88 0 168 21q78 20 139 69q64 49 101 137q34 89 34 224v1056h-196v-1067z" />
    <glyph glyph-name="logicalnot" unicode="&#xa4;" 
d="M983 1235v0l-117 -115v0q-125 103 -297 105q-172 -2 -297 -105v0l-116 115v0l-99 -98l113 -111q-102 -129 -102 -307q0 -174 102 -309l-111 -115l93 -92v0l112 119v0q131 -113 305 -113t305 113v0l113 -119v0l92 92l-110 115q102 135 102 309q0 178 -102 307l112 111z
M217 719q2 149 105 256q100 104 247 106q152 -2 250 -106q100 -107 103 -256q-3 -152 -103 -256q-98 -109 -250 -111q-151 2 -250 111q-100 104 -102 256v0z" />
    <glyph glyph-name="radical" unicode="&#xa5;" 
d="M152 0h196v1298h752v453h-172v-281h-776v-1470z" />
    <glyph glyph-name="florin" unicode="&#xa6;" horiz-adv-x="455" 
d="M141 -182h172v512h-172v-512zM141 842h172v512h-172v-512z" />
    <glyph glyph-name="approxequal" unicode="&#xa7;" 
d="M643 102q59 -39 90 -73q31 -39 31 -99q-2 -90 -62 -129q-61 -39 -135 -39q-119 3 -166 72q-22 31 -34 72q-13 41 -15 84h-184q4 -72 24 -139q19 -68 64 -125q45 -56 123 -88q76 -35 192 -35q148 2 260 88q113 84 117 243q0 64 -20 117q-23 53 -86 119q102 66 155 141
q54 78 54 201q0 70 -27 127q-29 55 -76 100q-100 90 -231 158q-131 70 -230 135q-47 35 -75 74q-31 37 -31 80q0 67 49 121q47 51 133 53q207 0 209 -228h172q-4 213 -119 295q-114 82 -256 80q-174 -2 -270 -98q-102 -98 -102 -250q0 -61 30 -110q29 -52 70 -95
q-92 -49 -150 -121q-59 -73 -59 -202q0 -78 35 -142q35 -63 125 -122zM399 874l357 -219q55 -30 90 -80q33 -49 33 -116q0 -51 -29 -105q-33 -55 -109 -102v0l-387 250q-41 28 -65 71q-29 43 -29 103q-2 59 31 108q31 49 108 90v0z" />
    <glyph glyph-name="Delta" unicode="&#xa8;" horiz-adv-x="1366" 
d="M152 0h1087v172h-891v500h809v172h-809v454h877v172h-1073v-1470zM426 1567h184v208h-184v-208zM754 1567h184v208h-184v-208z" />
    <glyph glyph-name="guillemotleft" unicode="&#xa9;" horiz-adv-x="1509" 
d="M127 735q2 283 184 461q176 180 447 182q270 -2 446 -182q176 -178 180 -461q-4 -280 -180 -459q-176 -182 -446 -184q-271 2 -447 184q-182 179 -184 459v0zM-16 735q6 -327 227 -545q217 -221 545 -227q329 6 546 227q222 218 226 545q-4 330 -226 547
q-217 221 -546 225q-328 -4 -545 -225q-221 -217 -227 -547v0zM1016 608q-13 -90 -78 -157q-64 -74 -178 -76q-131 0 -209 98q-82 94 -82 262q6 350 297 359q190 -5 242 -181h116q-6 103 -94 191q-88 90 -268 94q-72 0 -144 -23q-73 -24 -133 -79q-59 -54 -96 -146
q-39 -92 -39 -227t43 -223q41 -88 103 -140q63 -49 135 -69q69 -21 129 -21q176 4 268 113q92 104 102 225h-114z" />
    <glyph glyph-name="guillemotright" unicode="&#xaa;" horiz-adv-x="1479" 
d="M1188 526q-21 -149 -129 -266q-111 -121 -299 -125q-76 0 -154 31q-80 26 -149 88q-70 63 -115 168q-47 100 -53 250h526v172h-526q10 178 125 331q114 156 358 160q315 -4 403 -301h193q-10 168 -156 316q-145 151 -446 157q-121 0 -242 -37q-121 -41 -221 -133
q-100 -90 -160 -243q-63 -154 -63 -377q0 -226 72 -373q67 -145 170 -231q104 -82 221 -115q116 -35 217 -35q293 6 446 186q154 175 172 377h-190z" />
    <glyph glyph-name="glyph138" unicode="&#xab;" 
d="M199 477l321 -250v0v178l-211 166l211 166v178v0l-321 -249v-189zM618 477l322 -250v0v178l-211 166l211 166v178v0l-322 -249v-189z" />
    <glyph glyph-name="glyph139" unicode="&#xac;" horiz-adv-x="1229" 
d="M960 217h172v602h-1036v-172h864v-430z" />
    <glyph glyph-name="Agrave" unicode="&#xad;" horiz-adv-x="682" 
d="M90 479h502v185h-502v-185z" />
    <glyph glyph-name="Atilde" unicode="&#xae;" horiz-adv-x="1003" 
d="M188 1122q2 139 93 228q88 90 223 92q135 -2 225 -92q86 -89 88 -228q-2 -141 -88 -229q-90 -90 -225 -92q-135 2 -223 92q-91 88 -93 229v0zM117 1122q2 -164 114 -272q109 -113 273 -115q164 2 272 115q111 108 113 272q-2 164 -113 273q-108 110 -272 112
q-164 -2 -273 -112q-112 -109 -114 -273v0zM412 1089h118q25 0 39 -4q13 -6 19 -16q8 -18 8 -45q0 -43 10 -92h60v8q-19 4 -19 49v55q0 31 -14 48q-13 16 -33 22q20 8 37 29q14 20 14 59q-2 57 -37 80q-34 18 -84 18h-170v-368h52v157zM412 1257h122q21 0 43 -8
q21 -10 23 -53q0 -39 -23 -49q-22 -15 -51 -15h-114v125z" />
    <glyph glyph-name="Otilde" unicode="&#xaf;" horiz-adv-x="569" 
d="M186 0h197v1470h-197v-1470zM29 1567h184v208h-184v-208zM356 1567h185v208h-185v-208z" />
    <glyph glyph-name="OE" unicode="&#xb0;" horiz-adv-x="819" 
d="M199 1139q0 92 63 151q60 57 148 60q92 -3 151 -60q57 -59 59 -151q-2 -88 -59 -148q-59 -63 -151 -63q-88 0 -148 63q-63 60 -63 148v0zM111 1139q2 -125 90 -209q84 -88 209 -90q129 2 213 90q84 84 86 209q-2 129 -86 213t-213 86q-125 -2 -209 -86q-88 -84 -90 -213
v0z" />
    <glyph glyph-name="oe" unicode="&#xb1;" horiz-adv-x="1229" 
d="M528 741h-432v-172h432v-319h172v319h432v172h-432v295h-172v-295zM96 0h1036v172h-1036v-172z" />
    <glyph glyph-name="endash" unicode="&#xb2;" horiz-adv-x="569" 
d="M186 0h197v1470h-197v-1470z" />
    <glyph glyph-name="emdash" unicode="&#xb3;" horiz-adv-x="455" 
d="M135 1249h184v209h-184v-209zM135 0h184v1071h-184v-1071z" />
    <glyph glyph-name="glyph146" unicode="&#xb4;" horiz-adv-x="797" 
d="M135 0h184v911h443v400h-160v-240h-467v-1071z" />
    <glyph glyph-name="quotedblright" unicode="&#xb5;" 
d="M111 -401h184v516h4q109 -135 256 -135q172 4 268 143v0q23 -70 62 -103q37 -34 120 -40q87 2 113 20v145q-29 -6 -57 -6q-74 0 -68 119v807h-184v-627q0 -137 -53 -215q-56 -84 -205 -84q-146 0 -201 82q-57 78 -55 217v627h-184v-1466z" />
    <glyph glyph-name="quoteleft" unicode="&#xb6;" horiz-adv-x="1100" 
d="M475 -354h148v1701h247v-1701h148v1824h-508q-217 0 -342 -92q-131 -94 -131 -297q2 -164 123 -268q116 -106 315 -109v-1058z" />
    <glyph glyph-name="quoteright" unicode="&#xb7;" horiz-adv-x="569" 
d="M180 491h209v222h-209v-222z" />
    <glyph glyph-name="divide" unicode="&#xb8;" 
d="M868 342q-12 -37 -32 -74q-21 -37 -54 -69q-32 -31 -82 -50q-49 -22 -123 -22q-139 0 -217 94q-79 92 -84 250h783v92q-2 273 -135 408q-136 133 -361 133q-78 0 -160 -31q-84 -33 -157 -100q-162 -137 -166 -430q2 -291 143 -432q137 -144 357 -144q202 4 323 119
q121 111 143 256h-178zM276 618q13 144 95 236q80 88 206 90q279 -4 297 -326h-598zM313 1249h185v209h-185v-209zM641 1249h184v209h-184v-209z" />
    <glyph glyph-name="lozenge" unicode="&#xb9;" horiz-adv-x="2048" 
d="M1438 776q0 119 57 193q53 73 151 75q101 -2 156 -75q53 -74 53 -193q0 -117 -53 -190q-55 -78 -156 -78q-98 0 -151 78q-57 73 -57 190v0zM1253 776q2 -207 117 -311q113 -105 276 -105q164 0 277 105q115 104 117 311q-2 209 -117 313q-113 103 -277 103
q-163 0 -276 -103q-115 -104 -117 -313v0zM1296 61h701v160h-701v-160zM25 0h184v1180h4l692 -1180h213v1470h-184v-1179h-4l-692 1179h-213v-1470z" />
    <glyph glyph-name="ydieresis" unicode="&#xba;" horiz-adv-x="1024" 
d="M809 350q-10 -100 -80 -160q-68 -63 -174 -63q-143 2 -215 111q-70 102 -72 219h369v147h-369q25 336 285 340q119 -2 180 -63q62 -62 76 -146h176q-31 193 -158 283q-129 86 -278 86q-232 -2 -352 -158q-125 -153 -125 -407q0 -256 125 -412q120 -158 352 -160
q354 -2 448 383h-188z" />
    <glyph glyph-name="Ydieresis" unicode="&#xbb;" 
d="M618 227v0l322 250v189l-322 249v0v-178l211 -166l-211 -166v-178zM199 227v0l321 250v189l-321 249v0v-178l211 -166l-211 -166v-178z" />
    <glyph glyph-name="fraction" unicode="&#xbc;" horiz-adv-x="455" 
d="M-35 -416q35 -6 68 -6q88 0 145 23q55 18 86 55q33 39 45 88q10 49 10 107v1220h-184v-1210q2 -68 -20 -94q-25 -29 -115 -29h-35v-154zM135 1249h184v209h-184v-209z" />
    <glyph glyph-name="currency" unicode="&#xbd;" horiz-adv-x="1366" 
d="M1223 1038q-2 234 -154 352q-152 117 -401 117q-260 -2 -389 -127q-132 -125 -132 -311q-4 -281 375 -373l262 -65q156 -35 221 -90q64 -58 64 -160q-2 -129 -117 -186q-112 -60 -276 -60t-277 88q-114 88 -116 254h-185v-24q0 -203 142 -342q141 -144 432 -148
q229 -2 407 94q180 99 187 355q2 303 -392 393l-292 71q-248 52 -250 203q-2 252 346 256q180 -2 268 -86t92 -211h185z" />
    <glyph glyph-name="guilsinglleft" unicode="&#xbe;" horiz-adv-x="1024" 
d="M72 338q8 -193 131 -281q119 -90 321 -90q217 2 324 111q104 102 104 252q0 73 -26 121q-29 49 -78 79q-47 33 -107 54q-59 18 -125 30q-30 9 -59 17q-31 6 -61 12q-31 10 -58 18q-28 7 -53 15q-47 18 -76 49q-30 27 -30 72q2 155 217 159q239 -2 251 -188h172
q0 147 -106 242q-106 92 -307 94q-172 0 -283 -86q-114 -86 -117 -256q0 -70 31 -117q29 -49 76 -82q49 -31 111 -51q59 -21 120 -37q131 -27 232 -61q49 -19 78 -47q26 -31 26 -76q-2 -170 -254 -176q-260 -4 -282 223h-172z" />
    <glyph glyph-name="guilsinglright" unicode="&#xbf;" horiz-adv-x="455" 
d="M135 0h184v1071h-184v-1071zM-29 1249h185v209h-185v-209zM299 1249h184v209h-184v-209z" />
    <glyph glyph-name="fi" unicode="&#xc0;" horiz-adv-x="1366" 
d="M1126 0h211l-532 1470h-225l-553 -1470h211l157 444h574zM913 604h-462l229 645h4z" />
    <glyph glyph-name="fl" unicode="&#xc1;" horiz-adv-x="1366" 
d="M152 0h667q459 10 465 432q2 424 -506 432h-430v434h780v172h-976v-1470zM348 692h402q155 0 239 -55q84 -60 86 -205q-2 -143 -80 -203q-80 -59 -202 -57h-445v520z" />
    <glyph glyph-name="daggerdbl" unicode="&#xc2;" horiz-adv-x="1366" 
d="M152 0h620q143 0 244 43q98 39 155 102q62 66 88 142q25 75 25 147q-4 166 -88 250q-37 43 -84 70q-47 24 -94 39q108 51 153 141q43 88 43 166q-2 145 -75 231q-76 86 -187 115q-108 26 -274 24h-526v-1470zM348 172v512h395q191 0 271 -70q75 -67 73 -186
q2 -115 -73 -184q-80 -72 -271 -72h-395zM348 844v454h367q166 0 237 -57q66 -55 66 -162q0 -49 -8 -90q-13 -43 -45 -76q-33 -30 -93 -49q-59 -20 -157 -20h-367z" />
    <glyph glyph-name="periodcentered" unicode="&#xc3;" horiz-adv-x="1063" 
d="M152 0h196v1298h668v172h-864v-1470z" />
    <glyph glyph-name="glyph162" unicode="&#xc4;" horiz-adv-x="1366" 
d="M221 -315v315h954v-315h185v487h-146v1298h-874q4 -243 -43 -753q-23 -215 -53 -334q-31 -121 -74 -211h-133v-487h184zM1012 1298v-1126h-637q39 107 65 221q25 115 45 334q37 287 39 571h488z" />
    <glyph glyph-name="quotedblbase" unicode="&#xc5;" horiz-adv-x="1366" 
d="M152 0h1087v172h-891v500h809v172h-809v454h877v172h-1073v-1470z" />
    <glyph glyph-name="perthousand" unicode="&#xc6;" horiz-adv-x="2052" 
d="M1124 1470h-196v-630h-62l-573 630h-264l665 -708l-674 -762h277l569 674h62v-674h196v674h62l567 -674h278l-661 770l661 700h-278l-567 -630h-62v630z" />
    <glyph glyph-name="Acircumflex" unicode="&#xc7;" horiz-adv-x="1251" 
d="M547 694h143q156 -2 232 -76q73 -73 73 -192q-2 -154 -106 -223q-105 -70 -262 -68q-185 2 -273 86q-86 80 -102 203h-193q33 -246 193 -354q162 -107 393 -107q209 0 375 115q168 114 172 338q-2 159 -72 252q-71 92 -188 120v5q203 81 198 311q-2 200 -139 303
q-137 100 -342 100q-201 2 -354 -104q-158 -109 -189 -393h185q14 137 100 229q86 94 252 96q119 0 209 -57q92 -60 94 -197q0 -86 -57 -155q-62 -70 -187 -72h-155v-160z" />
    <glyph glyph-name="Ecircumflex" unicode="&#xc8;" horiz-adv-x="1479" 
d="M152 0h227l747 1196h4v-1196h197v1470h-227l-748 -1189h-4v1189h-196v-1470z" />
    <glyph glyph-name="Aacute" unicode="&#xc9;" horiz-adv-x="1479" 
d="M424 1849q12 -117 88 -196q76 -84 227 -86q154 2 230 86q75 79 86 196h-101q-18 -88 -75 -123q-60 -39 -140 -37q-80 -2 -137 37q-55 35 -78 123h-100zM152 0h227l747 1196h4v-1196h197v1470h-227l-748 -1189h-4v1189h-196v-1470z" />
    <glyph glyph-name="Edieresis" unicode="&#xca;" horiz-adv-x="1366" 
d="M152 0h196v512l238 229v0l518 -741h252l-629 876l612 594h-274l-717 -716v0v716h-196v-1470z" />
    <glyph glyph-name="Egrave" unicode="&#xcb;" horiz-adv-x="1327" 
d="M987 0h197v1470h-854q-6 -370 -31 -911q-4 -125 -10 -205q-8 -82 -27 -131q-31 -90 -121 -88q-63 0 -104 25v-172q55 -25 139 -25q84 2 141 31q56 29 88 76q66 98 72 221q39 497 55 1007h455v-1298z" />
    <glyph glyph-name="Iacute" unicode="&#xcc;" horiz-adv-x="1706" 
d="M152 0h184v1237h4l414 -1237h196l414 1237h4v-1237h184v1470h-282l-416 -1237h-4l-416 1237h-282v-1470z" />
    <glyph glyph-name="Icircumflex" unicode="&#xcd;" horiz-adv-x="1479" 
d="M152 0h196v692h782v-692h197v1470h-197v-606h-782v606h-196v-1470z" />
    <glyph glyph-name="Idieresis" unicode="&#xce;" horiz-adv-x="1593" 
d="M1513 735q-2 348 -186 559q-186 211 -530 213q-340 -2 -527 -213q-188 -211 -190 -559q0 -297 176 -528q176 -238 541 -244q368 6 544 244q172 231 172 528v0zM1317 735q0 -270 -127 -432q-129 -166 -393 -168q-260 2 -389 168q-132 162 -132 432q0 268 140 432
q133 166 381 168q252 -2 385 -168q133 -164 135 -432v0z" />
    <glyph glyph-name="Igrave" unicode="&#xcf;" horiz-adv-x="1479" 
d="M152 0h196v1298h782v-1298h197v1470h-1175v-1470z" />
    <glyph glyph-name="Oacute" unicode="&#xd0;" horiz-adv-x="1366" 
d="M348 782v516h402q299 -2 294 -258q5 -256 -294 -258h-402zM152 0h196v610h422q473 10 471 430q2 420 -471 430h-618v-1470z" />
    <glyph glyph-name="Ocircumflex" unicode="&#xd1;" horiz-adv-x="1479" 
d="M276 737q0 277 138 436q131 160 358 162q315 -4 403 -301h193q-10 168 -156 316q-145 151 -446 157q-121 0 -242 -37q-121 -41 -221 -133q-100 -90 -160 -243q-63 -154 -63 -377q0 -226 72 -373q67 -145 170 -231q104 -82 221 -115q116 -35 217 -35q293 6 446 186
q154 175 172 377h-190q-21 -149 -129 -266q-111 -121 -299 -125q-219 2 -348 164q-133 160 -136 438v0z" />
    <glyph glyph-name="apple" unicode="&#xd2;" horiz-adv-x="1251" 
d="M29 1298h499v-1298h197v1298h500v172h-1196v-172z" />
    <glyph glyph-name="Ograve" unicode="&#xd3;" horiz-adv-x="1366" 
d="M256 -8q68 -27 145 -29q191 0 287 94q94 97 182 314l482 1099h-222l-397 -983v0l-457 983h-229l504 -1034q33 -61 41 -90q6 -31 6 -57q0 -53 -41 -90q-43 -39 -143 -39q-66 0 -101 12q-34 10 -57 23v-203z" />
    <glyph glyph-name="Uacute" unicode="&#xd4;" horiz-adv-x="1593" 
d="M1343 735q-8 -409 -448 -413v827q440 -6 448 -414v0zM698 0h197v174q264 0 446 141q183 142 187 420q-4 281 -187 422q-182 139 -446 139v174h-197v-174q-262 0 -442 -139q-186 -141 -190 -422q4 -278 190 -420q180 -141 442 -141v-174zM250 735q8 408 448 414v-827
q-440 4 -448 413v0z" />
    <glyph glyph-name="Ucircumflex" unicode="&#xd5;" horiz-adv-x="1366" 
d="M281 0l401 604v0l401 -604h244l-522 754l493 716h-243l-373 -563v0l-373 563h-243l493 -716l-522 -754h244z" />
    <glyph glyph-name="Ugrave" unicode="&#xd6;" horiz-adv-x="1479" 
d="M152 0h1112v-315h184v487h-121v1298h-197v-1298h-782v1298h-196v-1470z" />
    <glyph glyph-name="dotlessi" unicode="&#xd7;" horiz-adv-x="1327" 
d="M985 0h197v1470h-197v-692q-141 -53 -358 -57q-84 0 -146 12q-63 8 -106 39q-41 31 -60 88q-22 55 -22 143v467h-197v-487q2 -258 142 -348q67 -47 157 -66q88 -20 193 -20q248 2 397 57v-606z" />
    <glyph glyph-name="circumflex" unicode="&#xd8;" horiz-adv-x="1933" 
d="M152 0h1630v1470h-197v-1298h-520v1298h-197v-1298h-520v1298h-196v-1470z" />
    <glyph glyph-name="tilde" unicode="&#xd9;" horiz-adv-x="1933" 
d="M152 0h1566v-315h184v487h-120v1298h-197v-1298h-520v1298h-197v-1298h-520v1298h-196v-1470z" />
    <glyph glyph-name="macron" unicode="&#xda;" horiz-adv-x="1706" 
d="M524 0h637q459 10 465 432q4 424 -514 432h-391v606h-692v-172h495v-1298zM721 692h371q155 0 239 -55q84 -60 86 -205q-2 -143 -80 -203q-80 -59 -202 -57h-414v520z" />
    <glyph glyph-name="breve" unicode="&#xdb;" horiz-adv-x="1821" 
d="M186 0h637q459 10 465 432q4 424 -514 432h-391v606h-197v-1470zM383 172v520h371q155 0 239 -55q84 -60 86 -205q-2 -143 -80 -203q-80 -59 -202 -57h-414zM1487 0h196v1470h-196v-1470z" />
    <glyph glyph-name="dotaccent" unicode="&#xdc;" horiz-adv-x="1366" 
d="M182 0h637q459 10 465 432q4 424 -514 432h-391v606h-197v-1470zM379 172v520h371q155 0 239 -55q84 -60 86 -205q-2 -143 -80 -203q-80 -59 -202 -57h-414z" />
    <glyph glyph-name="ring" unicode="&#xdd;" horiz-adv-x="1479" 
d="M664 672h526q-4 -150 -47 -250q-45 -105 -117 -168q-68 -62 -150 -88q-81 -31 -157 -31q-187 4 -295 125q-111 117 -133 266h-191q21 -202 174 -377q152 -180 435 -186q108 0 227 37q119 35 223 123q107 88 172 242q66 151 68 380q0 105 -15 195q-14 88 -43 162
q-59 145 -157 233q-205 174 -459 172q-299 -6 -444 -157q-146 -148 -158 -316h192q88 297 404 301q125 -2 213 -43q88 -45 143 -117q109 -153 115 -331h-526v-172z" />
    <glyph glyph-name="cedilla" unicode="&#xde;" horiz-adv-x="2048" 
d="M152 0h196v651h191q20 -274 198 -475q178 -207 514 -213q369 6 545 244q172 231 172 528q-2 348 -186 559q-187 211 -531 213q-317 -2 -501 -186q-185 -186 -211 -498h-191v647h-196v-1470zM1771 735q0 -270 -127 -432q-129 -166 -393 -168q-260 2 -389 168
q-131 162 -131 432q0 268 139 432q133 166 381 168q252 -2 385 -168q133 -164 135 -432v0z" />
    <glyph glyph-name="hungarumlaut" unicode="&#xdf;" horiz-adv-x="1483" 
d="M1311 1470h-609q-71 0 -176 -6q-49 -4 -96 -16q-49 -12 -90 -35q-72 -39 -127 -127q-57 -88 -59 -229q0 -97 30 -160q25 -64 66 -102q41 -39 84 -60q41 -20 71 -33q-67 -20 -106 -51q-43 -31 -63 -71q-21 -39 -29 -86q-8 -46 -15 -99l-16 -200q-6 -84 -27 -125
q-18 -43 -43 -70h226q37 74 41 176l10 160q8 117 33 170q24 53 69 80q35 24 90 32q56 7 172 7h367v-625h197v1470zM1114 790h-424q-82 -2 -139 7q-60 8 -111 43q-57 47 -73 104q-21 57 -19 98q0 64 27 125q26 62 84 97q45 24 100 28q53 4 105 4h450v-506z" />
    <glyph glyph-name="ogonek" unicode="&#xe0;" 
d="M305 750q12 206 250 206q244 2 246 -182q0 -59 -23 -90q-24 -29 -69 -35l-301 -37q-125 -10 -220 -90q-100 -82 -102 -246q2 -151 102 -229q99 -80 226 -80q145 2 237 51q90 48 156 123v0q10 -159 194 -155q58 2 99 16v127q-31 -8 -60 -8q-30 0 -43 20q-16 17 -16 43v623
q-4 162 -125 229q-119 68 -283 68q-190 0 -311 -78q-119 -82 -129 -276h172zM797 545v-172q0 -68 -35 -117t-88 -80q-115 -63 -209 -61q-86 0 -139 49q-56 47 -56 139q0 80 66 121q63 43 164 53q92 10 174 25q78 14 123 43v0z" />
    <glyph glyph-name="caron" unicode="&#xe1;" 
d="M827 1483q-10 -41 -39 -52q-28 -10 -92 -12l-65 -2q-137 -2 -240 -45q-102 -43 -188 -168q-76 -125 -103 -299q-28 -176 -28 -311q0 -191 37 -289q32 -100 73 -156q84 -108 191 -145q104 -37 198 -37q166 2 267 70q100 63 149 158q51 96 68 190q12 94 12 158
q-2 262 -135 393q-131 131 -324 131q-69 0 -125 -14q-55 -17 -96 -41q-39 -25 -68 -50q-30 -26 -49 -49v0q41 353 332 353l76 4q100 4 135 12q35 4 61 25q31 22 50 47q18 24 26 49q8 24 15 47q2 20 2 33h-140zM256 516q0 172 78 287q76 116 241 119q168 -5 240 -119
q68 -115 68 -269q0 -28 -2 -96q-5 -67 -35 -141q-27 -74 -92 -125q-66 -57 -185 -57q-104 0 -166 47q-63 45 -96 110q-28 68 -41 133q-10 66 -10 111v0z" />
    <glyph glyph-name="Lslash" unicode="&#xe2;" 
d="M152 0h485q418 6 416 324q-4 186 -185 247q60 39 97 90q34 52 34 125q0 283 -391 285h-456v-1071zM336 483h280q146 0 201 -43q51 -43 51 -125q0 -77 -51 -120q-55 -48 -201 -48h-280v336zM336 924h303q72 0 123 -31q51 -35 53 -123q0 -76 -53 -113q-53 -39 -148 -39
h-278v306z" />
    <glyph glyph-name="lslash" unicode="&#xe3;" horiz-adv-x="795" 
d="M135 0h184v911h441v160h-625v-1071z" />
    <glyph glyph-name="Scaron" unicode="&#xe4;" horiz-adv-x="1251" 
d="M1038 -262h172v422h-131v911h-698q2 -473 -162 -911h-141v-422h172v262h788v-262zM405 160q17 35 37 104q11 37 23 88q12 53 24 123q48 252 58 436h348v-751h-490z" />
    <glyph glyph-name="scaron" unicode="&#xe5;" 
d="M868 342q-12 -37 -32 -74q-21 -37 -54 -69q-32 -31 -82 -50q-49 -22 -123 -22q-139 0 -217 94q-79 92 -84 250h783v92q-2 273 -135 408q-136 133 -361 133q-78 0 -160 -31q-84 -33 -157 -100q-162 -137 -166 -430q2 -291 143 -432q137 -144 357 -144q202 4 323 119
q121 111 143 256h-178zM276 618q13 144 95 236q80 88 206 90q279 -4 297 -326h-598z" />
    <glyph glyph-name="Zcaron" unicode="&#xe6;" horiz-adv-x="1597" 
d="M893 1071h-184v-438h-54l-387 438h-223l459 -508l-481 -563h227l405 487h54v-487h184v487h53l401 -487h228l-477 563l460 508h-221l-391 -438h-53v438z" />
    <glyph glyph-name="zcaron" unicode="&#xe7;" horiz-adv-x="1024" 
d="M412 485q53 6 104 6q131 -2 193 -49q59 -51 59 -127q0 -184 -254 -188q-98 -2 -178 45q-80 43 -100 158h-185q43 -353 465 -363q166 0 299 88q133 86 137 264q0 64 -20 113q-21 45 -56 76q-34 31 -69 49q-37 16 -68 18v5q76 24 127 71q47 47 49 139q-4 162 -122 238
q-117 76 -269 76q-63 0 -129 -15q-67 -18 -131 -57q-61 -39 -102 -110q-43 -70 -58 -179h172q11 66 39 105q27 39 64 59q39 23 76 31q34 6 63 6q107 -2 162 -47q51 -47 51 -115q-4 -86 -86 -114q-37 -15 -78 -21q-43 -8 -82 -8h-73v-154z" />
    <glyph glyph-name="brokenbar" unicode="&#xe8;" 
d="M127 0h211l485 801h4v-801h185v1071h-211l-486 -801h-4v801h-184v-1071z" />
    <glyph glyph-name="Eth" unicode="&#xe9;" 
d="M127 0h211l485 801h4v-801h185v1071h-211l-486 -801h-4v801h-184v-1071zM254 1507q12 -117 88 -196q76 -84 227 -86q154 2 230 86q75 79 86 196h-101q-18 -88 -75 -123q-60 -39 -140 -37q-80 -2 -137 37q-55 35 -78 123h-100z" />
    <glyph glyph-name="eth" unicode="&#xea;" 
d="M152 0h184v348l180 168v0l373 -516h237l-477 639l469 432h-242l-540 -508v0v508h-184v-1071z" />
    <glyph glyph-name="Yacute" unicode="&#xeb;" horiz-adv-x="1175" 
d="M856 0h184v1071h-786l-23 -641q-4 -178 -34 -242q-33 -63 -93 -61q-41 0 -77 18v-145q10 -10 36 -20q25 -11 78 -13q275 2 279 430l16 514h420v-911z" />
    <glyph glyph-name="yacute" unicode="&#xec;" horiz-adv-x="1364" 
d="M135 0h172v862h4l283 -862h176l283 862h4v-862h172v1071h-252l-287 -879h-4l-283 879h-268v-1071z" />
    <glyph glyph-name="Thorn" unicode="&#xed;" 
d="M135 0h184v479h500v-479h184v1071h-184v-432h-500v432h-184v-1071z" />
    <glyph glyph-name="thorn" unicode="&#xee;" 
d="M883 537q0 -183 -78 -293q-80 -115 -236 -117q-153 2 -231 117q-82 110 -82 293q0 182 82 294q78 111 231 113q156 -2 236 -113q78 -112 78 -294v0zM1067 537q-8 555 -498 567q-489 -12 -497 -567q8 -557 497 -570q490 13 498 570v0z" />
    <glyph glyph-name="minus" unicode="&#xef;" 
d="M819 0h184v1071h-868v-1071h184v911h500v-911z" />
    <glyph glyph-name="multiply" unicode="&#xf0;" 
d="M125 -422h184v543h4q29 -55 103 -101q75 -51 180 -53q219 0 344 142q125 141 127 466q-4 265 -131 398q-129 131 -307 131q-127 0 -203 -51q-76 -52 -113 -129h-4v147h-184v-1493zM305 530q0 185 70 299q71 113 215 115q153 -2 223 -115q70 -114 70 -299q0 -176 -70 -286
q-70 -115 -223 -117q-144 2 -215 117q-70 110 -70 286v0z" />
    <glyph glyph-name="onesuperior" unicode="&#xf1;" horiz-adv-x="1024" 
d="M805 377q-53 -260 -260 -262q-285 -4 -289 405q0 195 76 307q73 115 225 117q221 -4 248 -233h172q-2 63 -25 131q-22 67 -71 127q-50 59 -131 98q-84 35 -213 37q-191 -2 -324 -152q-139 -151 -141 -422q0 -157 45 -268q43 -110 108 -174q68 -63 146 -92q75 -29 147 -29
q131 2 217 43t137 105q52 63 76 133q25 69 29 129h-172z" />
    <glyph glyph-name="twosuperior" unicode="&#xf2;" horiz-adv-x="1024" 
d="M420 0h184v911h369v160h-922v-160h369v-911z" />
    <glyph glyph-name="threesuperior" unicode="&#xf3;" horiz-adv-x="1024" 
d="M420 -29l-60 -151q-30 -92 -131 -94q-67 2 -108 18v-166q28 -10 102 -12q142 -2 213 69q70 76 156 322l409 1114h-202l-285 -872h-4l-285 872h-202z" />
    <glyph glyph-name="onehalf" unicode="&#xf4;" horiz-adv-x="1704" 
d="M760 428q-2 -309 -236 -313q-80 0 -131 43q-51 39 -82 102q-28 64 -41 137q-14 72 -16 140q0 174 65 288q64 117 209 119q97 0 164 -80q66 -80 68 -235v-201zM760 -422h184v551h4q60 -98 129 -129q68 -33 146 -33q163 2 286 148q121 145 125 428q0 219 -94 387
q-96 170 -315 174q-111 -2 -174 -53q-33 -25 -58 -54q-26 -28 -45 -53h-4v526h-184v-526h-4q-33 53 -101 107q-65 51 -176 53q-217 -4 -313 -174q-96 -168 -96 -387q2 -283 129 -428q120 -146 282 -148q80 0 150 33q69 31 125 129h4v-551zM1175 115q-229 4 -231 313v201
q2 155 72 235q65 80 159 80q148 -2 213 -119q62 -114 62 -288q0 -68 -10 -140q-13 -73 -43 -137q-29 -63 -84 -102q-56 -43 -138 -43v0z" />
    <glyph glyph-name="glyph211" unicode="&#xf5;" horiz-adv-x="1024" 
d="M500 399l272 -399h231l-378 549l362 522h-221l-242 -373v0l-254 373h-231l356 -522l-375 -549h228l252 399v0z" />
    <glyph glyph-name="threequarters" unicode="&#xf6;" 
d="M135 0h799v-262h172v422h-103v911h-184v-911h-500v911h-184v-1071z" />
    <glyph glyph-name="franc" unicode="&#xf7;" horiz-adv-x="1102" 
d="M780 0h185v1071h-185v-487q-45 -15 -110 -21q-66 -8 -113 -8q-154 0 -217 51q-66 51 -64 168v297h-184v-334q-2 -336 422 -329q106 0 266 24v-432z" />
    <glyph glyph-name="glyph214" unicode="&#xf8;" horiz-adv-x="1593" 
d="M135 0h1323v1071h-184v-911h-385v911h-185v-911h-385v911h-184v-1071z" />
    <glyph glyph-name="gbreve" unicode="&#xf9;" horiz-adv-x="1593" 
d="M1388 -262h172v422h-102v911h-184v-911h-385v911h-185v-911h-385v911h-184v-1071h1253v-262z" />
    <glyph glyph-name="Idotaccent" unicode="&#xfa;" horiz-adv-x="1251" 
d="M362 0h482q366 6 372 334q-4 327 -389 334h-280v403h-520v-160h335v-911zM547 520h243q113 0 179 -41q63 -45 63 -145q-2 -101 -61 -142q-64 -45 -164 -45h-260v373z" />
    <glyph glyph-name="Scedilla" unicode="&#xfb;" horiz-adv-x="1479" 
d="M1159 0h184v1071h-184v-1071zM135 0h506q367 6 373 334q-6 327 -373 334h-322v403h-184v-1071zM319 520h269q112 0 178 -41q63 -45 63 -145q-2 -101 -61 -142q-64 -45 -164 -45h-285v373z" />
    <glyph glyph-name="scedilla" unicode="&#xfc;" horiz-adv-x="1024" 
d="M135 0h481q367 6 373 334q-6 327 -373 334h-297v403h-184v-1071zM319 520h244q113 0 178 -41q64 -45 64 -145q-2 -101 -62 -142q-63 -45 -163 -45h-261v373z" />
    <glyph glyph-name="Cacute" unicode="&#xfd;" horiz-adv-x="1024" 
d="M387 457h369q0 -117 -70 -219q-70 -109 -217 -111q-102 0 -172 63q-68 60 -82 160h-188q96 -385 448 -383q232 2 356 160q121 156 121 412q0 254 -121 407q-124 156 -356 158q-149 0 -276 -86q-125 -90 -160 -283h176q18 84 78 146q59 61 178 63q260 -4 285 -340h-369
v-147z" />
    <glyph glyph-name="cacute" unicode="&#xfe;" horiz-adv-x="1593" 
d="M1337 537q0 -183 -78 -293q-79 -115 -235 -117q-154 2 -231 117q-82 110 -82 293q0 182 82 294q77 111 231 113q156 -2 235 -113q78 -112 78 -294v0zM135 0h184v471h207q47 -496 498 -504q489 13 498 570q-9 555 -498 567q-440 -8 -498 -486h-207v453h-184v-1071z" />
    <glyph glyph-name="glyph221" unicode="&#xff;" horiz-adv-x="1143" 
d="M1005 1071h-475q-63 0 -139 -6q-76 -8 -143 -47q-51 -31 -92 -96q-45 -64 -45 -162q0 -193 172 -254q-72 -23 -101 -66q-30 -41 -41 -145l-12 -137q-8 -80 -20 -111q-13 -31 -29 -47h203q14 43 20 86t6 55l8 115q7 63 25 100q18 33 51 47q66 23 191 21h237v-424h184v1071
zM821 571h-280q-64 -4 -152 23q-41 14 -65 51q-31 35 -31 98q0 95 72 142q49 26 176 24h280v-338z" />
    <glyph glyph-name="trademark" unicode="&#x152;" horiz-adv-x="2048" 
d="M1182 692h221q155 0 239 -55q84 -60 86 -205q-2 -143 -79 -203q-80 -59 -203 -57h-264v520zM152 0h196v692h637v-692h487q459 10 465 432q4 424 -514 432h-241v606h-197v-606h-637v606h-196v-1470z" />
    <glyph glyph-name="integral" unicode="&#x153;" horiz-adv-x="1692" 
d="M817 0h436q367 6 373 334q-4 327 -389 334h-236v403h-184v-403h-498v403h-184v-1071h184v520h498v-520zM1001 520h199q113 0 178 -41q64 -45 64 -145q-2 -101 -62 -142q-63 -45 -164 -45h-215v373z" />
    <glyph glyph-name="registered" unicode="&#x160;" horiz-adv-x="2048" 
d="M981 1298v-1298h522q459 10 465 432q4 424 -514 432h-276v606h-842l-31 -950q-4 -241 -41 -315q-18 -39 -47 -53q-31 -17 -72 -17q-12 0 -41 4q-28 2 -61 21v-172q66 -25 135 -25q113 2 180 51q64 47 95 129q30 82 38 179q9 96 11 192l30 784h449zM1178 692h255
q156 0 240 -55q84 -60 86 -205q-2 -143 -80 -203q-80 -59 -202 -57h-299v520z" />
    <glyph glyph-name="product" unicode="&#x161;" horiz-adv-x="1730" 
d="M842 0h446q367 6 373 334q-4 327 -389 334h-246v403h-772l-21 -641q-6 -180 -36 -244q-35 -61 -91 -59q-38 0 -79 18v-145q10 -8 36 -18q25 -13 78 -15q283 6 279 430l16 514h406v-911zM1026 520h205q112 0 178 -41q63 -45 63 -145q-2 -101 -61 -142q-64 -45 -164 -45
h-221v373z" />
    <glyph glyph-name="Omega" unicode="&#x178;" 
d="M135 0h342v-262h184v262h342v1071h-184v-911h-500v911h-184v-1071z" />
    <glyph glyph-name="degree" unicode="&#x192;" horiz-adv-x="795" 
d="M135 0h184v911h441v160h-625v-1071zM258 1212h137l269 295h-224z" />
    <glyph glyph-name="yen" unicode="&#x2013;" horiz-adv-x="1024" 
d="M1024 641h-1024v-150h1024v150z" />
    <glyph glyph-name="mu" unicode="&#x2014;" horiz-adv-x="2048" 
d="M1782 641h-1516v-150h1516v150z" />
    <glyph glyph-name="Oslash" unicode="&#x2018;" horiz-adv-x="569" 
d="M180 954h209v221h-104q2 80 24 134q21 53 80 67v94q-80 -16 -141 -80q-31 -32 -47 -88q-21 -57 -21 -143v-205z" />
    <glyph glyph-name="infinity" unicode="&#x2019;" horiz-adv-x="569" 
d="M180 1249h105q0 -78 -21 -131q-12 -26 -31 -45q-22 -18 -53 -24v-95q41 13 80 31q37 18 66 51q30 33 47 90q16 56 16 140v204h-209v-221z" />
    <glyph glyph-name="dagger" unicode="&#x201a;" horiz-adv-x="569" 
d="M180 0h105q0 -78 -21 -131q-12 -27 -31 -45q-22 -19 -53 -25v-94q41 12 80 31q37 18 66 51q30 33 47 90q16 55 16 139v205h-209v-221z" />
    <glyph glyph-name="plusminus" unicode="&#x201c;" horiz-adv-x="909" 
d="M516 954h209v221h-105q3 80 25 134q21 53 80 67v94q-80 -16 -141 -80q-31 -32 -47 -88q-21 -57 -21 -143v-205zM184 954h209v221h-104q2 80 24 134q21 53 80 67v94q-80 -16 -141 -80q-31 -32 -47 -88q-21 -57 -21 -143v-205z" />
    <glyph glyph-name="lessequal" unicode="&#x201d;" horiz-adv-x="909" 
d="M184 1249h105q0 -78 -21 -131q-12 -26 -30 -45q-23 -18 -54 -24v-95q41 13 80 31q37 18 66 51q30 33 47 90q16 56 16 140v204h-209v-221zM516 1249h104q0 -78 -20 -131q-12 -26 -31 -45q-22 -18 -53 -24v-95q41 13 80 31q37 18 65 51q31 33 48 90q16 56 16 140v204h-209
v-221z" />
    <glyph glyph-name="cent" unicode="&#x201e;" horiz-adv-x="909" 
d="M184 0h105q0 -78 -21 -131q-12 -27 -30 -45q-23 -19 -54 -25v-94q41 12 80 31q37 18 66 51q30 33 47 90q16 55 16 139v205h-209v-221zM516 0h104q0 -78 -20 -131q-12 -27 -31 -45q-22 -19 -53 -25v-94q41 12 80 31q37 18 65 51q31 33 48 90q16 55 16 139v205h-209v-221z
" />
    <glyph glyph-name="section" unicode="&#x2020;" 
d="M86 883h391v-1209h184v1209h392v153h-392v434h-184v-434h-391v-153z" />
    <glyph glyph-name="bullet" unicode="&#x2021;" 
d="M661 899h392v154h-392v417h-184v-417h-391v-154h391v-657h-391v-154h391v-414h184v414h392v154h-392v657z" />
    <glyph glyph-name="greaterequal" unicode="&#x2022;" horiz-adv-x="1024" 
d="M145 735q2 -155 109 -258q102 -108 258 -110q158 2 262 110q105 103 107 258q-2 158 -107 260q-104 105 -262 107q-156 -2 -258 -107q-107 -102 -109 -260v0z" />
    <glyph glyph-name="sterling" unicode="&#x2026;" horiz-adv-x="2048" 
d="M238 0h208v221h-208v-221zM919 0h209v221h-209v-221zM1601 0h209v221h-209v-221z" />
    <glyph glyph-name="germandbls" unicode="&#x2030;" horiz-adv-x="2048" 
d="M141 1118q0 80 56 135q53 54 135 56q82 -2 135 -54q53 -55 55 -137q-2 -78 -55 -133q-53 -57 -135 -57t-135 57q-56 55 -56 133v0zM1114 1438h-113l-813 -1471h113zM782 287q0 80 56 135q53 53 135 55q82 -2 135 -53q53 -55 55 -137q-2 -78 -55 -133q-53 -58 -135 -58
t-135 58q-56 55 -56 133v0zM12 1118q2 -137 94 -227q91 -90 226 -92q139 2 227 94q90 90 92 225q-2 135 -92 227q-92 91 -227 93q-135 -2 -226 -93q-92 -88 -94 -227v0zM653 287q2 -138 94 -228q91 -90 226 -92q139 2 227 94q90 91 92 226q-2 135 -92 227q-92 90 -227 92
q-135 -2 -226 -92q-92 -88 -94 -227v0zM1397 287q2 -138 94 -228q90 -90 225 -92q139 2 227 94q91 91 93 226q-2 135 -93 227q-92 90 -227 92q-135 -2 -225 -92q-92 -88 -94 -227v0zM1526 287q0 80 55 135q53 53 135 55q82 -2 135 -53q54 -55 56 -137q-2 -78 -56 -133
q-53 -58 -135 -58t-135 58q-55 55 -55 133v0z" />
    <glyph glyph-name="copyright" unicode="&#x2039;" horiz-adv-x="682" 
d="M502 221v180l-215 166l215 166v180v0l-322 -252v-188l322 -252v0z" />
    <glyph glyph-name="pi" unicode="&#x203a;" horiz-adv-x="682" 
d="M180 221v0l322 252v188l-322 252v0v-180l215 -166l-215 -166v-180z" />
    <glyph glyph-name="summation" unicode="&#x2122;" horiz-adv-x="1753" 
d="M100 1384h250v-649h98v649h250v86h-598v-86zM850 735h92v619h2l207 -619h98l207 619h2v-619h92v735h-141l-207 -618h-2l-209 618h-141v-735z" />
    <glyph glyph-name="questiondown" unicode="&#xf0a2;" 
d="M434 166v0q-65 45 -106 137q-43 92 -43 205q2 231 92 338q86 104 219 104q39 0 59 -6zM1042 711q-10 94 -39 161q-32 64 -73 107t-82 65q-41 23 -70 29l53 205h-84l-51 -186q-28 12 -88 12q-502 -6 -508 -598q2 -199 92 -330q87 -131 195 -172l-70 -233h84l64 211
q76 -13 123 -15q127 2 215 47q86 41 137 105q55 65 82 135q24 70 29 125h-175q-38 -156 -116 -207q-82 -53 -178 -51q-48 0 -72 8l225 788v0q37 -12 62 -36q24 -25 39 -54q28 -61 38 -116h168z" />
    <glyph glyph-name="exclamdown" unicode="&#xf0a3;" 
d="M887 981h184v31q0 163 -104 292q-105 129 -340 134q-146 0 -244 -39q-49 -19 -86 -43q-39 -25 -70 -58q-57 -61 -82 -131q-24 -71 -24 -137q0 -76 33 -143q26 -68 55 -125h-141v-129h219q35 -58 39 -142q2 -55 -43 -161q-52 -105 -207 -213l100 -140v0q119 78 240 80
q59 0 116 -12q56 -12 111 -33q55 -16 107 -28q49 -17 94 -17q139 0 260 96l-84 134q-23 -23 -68 -39q-43 -19 -88 -19q-65 2 -155 33q-91 31 -189 33q-151 -4 -268 -74v2q248 182 246 369q-2 82 -21 131h283v129h-342q-101 168 -101 280q-2 70 62 156q33 41 90 66
q55 26 137 26q129 -2 205 -80t76 -207v-22z" />
    <glyph glyph-name="quotedblleft" unicode="&#xf0a5;" 
d="M477 0h184v354h312v117h-312v121l29 53h283v117h-219l348 643h-201l-332 -643v0l-331 643h-199l346 -643h-219v-117h282l29 -53v-121h-311v-117h311v-354z" />
    <glyph glyph-name="nonbreakingspace" unicode="&#xf0a8;" horiz-adv-x="455" 
d="M-29 1249h185v209h-185v-209zM299 1249h184v209h-184v-209z" />
    <glyph glyph-name="Gbreve" unicode="&#xf0af;" horiz-adv-x="455" 
d="M547 1401h-639v-117h639v117z" />
    <glyph glyph-name="ellipsis" unicode="&#xf0b4;" horiz-adv-x="455" 
d="M88 1212h137l269 295h-224z" />
    <glyph glyph-name="onequarter" unicode="&#xf131;" horiz-adv-x="455" 
d="M135 0h184v1071h-184v-1071z" />
    <glyph glyph-name="quotesinglbase" unicode="&#xf192;" 
d="M1026 1409q-57 27 -160 29q-266 -2 -329 -336l-43 -205h-261v-143l232 -2l-135 -676q-41 -209 -92 -279q-25 -37 -56 -51q-33 -14 -69 -14q-64 2 -105 28l-31 -157q37 -23 127 -25q54 0 113 14q55 15 111 66q57 51 106 160q47 108 84 293l127 643h260v143h-231l28 152
q27 139 72 188q43 47 105 47q59 -2 116 -31z" />
    <glyph glyph-name="Ccaron" unicode="&#xf2c7;" horiz-adv-x="455" 
d="M133 1212h189l202 295h-162l-135 -196v0l-135 196h-162z" />
    <glyph glyph-name="uniF2DD" unicode="&#xf2dd;" horiz-adv-x="455" 
d="M236 1212h137l268 295h-223zM-96 1212h137l268 295h-223z" />
    </font>
</defs>
</svg>
